<svg xmlns="http://www.w3.org/2000/svg" xmlns:xlink="http://www.w3.org/1999/xlink" version="1.1" width="612" height="792" viewBox="0 0 612 792">
<text xml:space="preserve" transform="matrix(1 0 -0 1 0 792)" font-size="12" font-family="ArialMT"><tspan y="-762.72" x="36"> </tspan></text>
<text xml:space="preserve" transform="matrix(1 0 -0 1 0 792)" font-size="12" font-family="ArialMT"><tspan y="-37.799989" x="36"> </tspan></text>
<text xml:space="preserve" transform="matrix(1 0 -0 1 0 792)" font-size="18" font-family="Calibri" font-weight="bold"><tspan y="-738.84" x="265.26 277.4406 292.07463 300.954 307.37464 311.46064 317.40065 327.06666 335.94786 340.38667 346.746">Omar Jbair </tspan></text>
<text xml:space="preserve" transform="matrix(1 0 -0 1 0 792)" font-size="16.02" font-family="Calibri" font-weight="bold"><tspan y="-715.5" x="214.92"> </tspan></text>
<text xml:space="preserve" transform="matrix(1 0 -0 1 0 792)" font-size="16.02" font-family="Calibri"><tspan y="-715.5" x="218.5245 223.61887 232.01335 240.40784 244.0604 252.52056">Junior</tspan></text>
<text xml:space="preserve" transform="matrix(1 0 -0 1 0 792)" font-size="16.02" font-family="Calibri" font-weight="bold"><tspan y="-715.5" x="258.09553"> </tspan></text>
<text xml:space="preserve" transform="matrix(1 0 -0 1 0 792)" font-size="16.02" font-family="Calibri"><tspan y="-715.5" x="261.73045 269.11085 274.6906 283.14918 291.54847 296.89436 301.8125 309.61424 318.0087 326.40318 330.00767 339.84394 347.8235 355.08375 363.0633 366.71586 375.176 383.516 391.49555">Front-End Developer</tspan></text>
<text xml:space="preserve" transform="matrix(1 0 -0 1 0 792)" font-size="12" font-family="Calibri"><tspan y="-715.5" x="397.08"> </tspan></text>
<text xml:space="preserve" transform="matrix(1 0 -0 1 0 792)" font-size="10.5" font-family="Calibri"><tspan y="-698.28" x="81.54 83.9445 90.42406 95.46406 103.86406 108.90406 112.98436 117.42376 122.94676 127.02706 129.66257 132.06707 136.86661 141.54647 145.20677 147.60707 152.64707 155.04631 159.90676 162.306 167.82585 176.22585 181.26584 184.9251 187.56584 190.08585 195.54584 200.52494 202.92523 206.5845 215.94 220.8645 229.2645 234.30449 236.70479 239.10509 241.74059 246.18103 251.70403 260.16389 262.56837 267.4288 269.82804 273.0075 278.22709 283.50859 288.84889 294.186 297.3675 299.709 305.05354 310.3928 315.67326 320.9537 326.29298 331.63749 336.982 342.2614 347.60594 349.99354 354.79307 357.19755 361.638 364.03727 369.49729 374.29789 379.45759 384.97746 387.61717 393.13807"> Damascus, Syria | omar.jbair@gmail.com | (+963) 958395965 | LinkedIn:</tspan></text>
<text fill="#4f81bd" xml:space="preserve" transform="matrix(1 0 -0 1 0 792)" font-size="10.5" font-family="Calibri"><tspan y="-698.28" x="395.95207"> </tspan></text>
<text fill="#0b56a5" xml:space="preserve" transform="matrix(1 0 -0 1 0 792)" font-size="10.5" font-family="Calibri"><tspan y="-698.28" x="398.35655 403.8764 412.2764 417.3164 420.97566 423.38017 425.90016 431.36018 436.40019 438.80049">omar jbair</tspan></text>
<text xml:space="preserve" transform="matrix(1 0 -0 1 0 792)" font-size="10.5" font-family="Calibri"><tspan y="-698.28" x="442.45655 444.86106 449.7215 452.12074 458.721 461.12553 464.66508 471.20658 476.72645 482.2463 485.00675"> | GitHub: </tspan></text>
<text fill="#0b56a5" xml:space="preserve" transform="matrix(1 0 -0 1 0 792)" font-size="10.5" font-family="Calibri"><tspan y="-698.28" x="487.39656 494.29609 502.69609 507.73609 511.39637 513.9164 519.4394 524.4794 526.8786">Omarjbair</tspan></text>
<text xml:space="preserve" transform="matrix(1 0 -0 1 0 792)" font-size="10.5" font-family="Calibri" font-weight="bold"><tspan y="-698.28" x="530.478"> </tspan></text>
<path transform="matrix(1,0,0,-1,0,792)" d="M398.34 696.42H442.44V697.07998H398.34Z" fill="#0b56a5"/>
<path transform="matrix(1,0,0,-1,0,792)" d="M487.38 696.42H530.46V697.07998H487.38Z" fill="#0b56a5"/>
<text xml:space="preserve" transform="matrix(1 0 -0 1 0 792)" font-size="12" font-family="Calibri" font-weight="bold"><tspan y="-677.64" x="36 43.260004 49.980005 58.08 65.94 71.880008 74.58 85.08">ABOUT ME</tspan></text>
<text xml:space="preserve" transform="matrix(1 0 -0 1 0 792)" font-size="10.5" font-family="Calibri" font-weight="bold"><tspan y="-677.64" x="90.96"> </tspan></text>
<text xml:space="preserve" transform="matrix(1 0 -0 1 0 792)" font-size="12" font-family="Calibri" font-weight="bold"><tspan y="-677.64" x="108 324 432">   </tspan></text>
<text xml:space="preserve" transform="matrix(1 0 -0 1 0 792)" font-size="10.5" font-family="Calibri" font-weight="bold"><tspan y="-677.64" x="574.98"> </tspan></text>
<path transform="matrix(1,0,0,-1,0,792)" d="M36 675.48H574.98V676.26H36Z"/>
<text xml:space="preserve" transform="matrix(1 0 -0 1 0 792)" font-size="10.5" font-family="Calibri"><tspan y="-660.18" x="72 76.7985 80.4588 85.978649 91.4985 95.037 98.2815 103.381359 108.9012 114.42104 116.82555 123.30509 128.52568 133.20554 138.4251 140.82959 146.34943 151.86928 157.08988 160.75438 163.15363 168.01409 170.41858 176.12009 181.34069 186.37963 190.82112 194.30083 196.70532 203.84532 206.24982 213.03282 218.25238 222.81253 226.35208 228.99283 231.51284 235.59313 237.99237 242.79297 248.31282 253.47252 257.91404 260.3133 265.3533 267.7578 270.16233 274.24159 277.737">Front-End Developer | React &#x0026; Next.js Specialist </tspan><tspan y="-647.4015" x="72 74.6397 77.044208 82.084209 90.48421 92.88871 97.86781 100.272319 105.79216 111.012767 114.552318 119.592319 121.99682 124.40132 127.6185 133.07849 136.743 139.14749 144.36705 149.8869 153.42646 158.64705 164.1669 166.5714 169.7508 173.4153 178.93514 184.45499 187.983 191.1645 196.38407 201.90497 207.42482 209.82407 215.34497 220.56453 225.30423 230.52483 232.92407 238.44496 243.96482 249.18437 252.84888 255.25337 262.75248 265.15699 268.69758 274.21745 276.603 281.9475 287.1072 289.5117 294.25138 299.472 304.512 308.1114 312.19169 314.59617 320.11604 323.29545 325.69993 330.91947 335.4796 340.99949 346.2201 349.87934 352.28385 357.50447 363.02433 367.46583 372.68644 375.08567 380.60658 386.12644 388.5257 390.9302 396.45008 398.85459 404.37446 409.29475 411.69398 417.21488 421.95457 427.47444 432.51445 440.91444 443.31895 447.76045 450.16493 455.20494 460.7248 466.24467 468.64915 472.31364 477.53318 481.61347 487.0735 492.59336 498.11323 502.1935 504.59803 509.33775 514.55728 516.96176 524.4619 529.68148 535.2013">I am a detail-oriented front-end developer with 1+ years of experience building dynamic and responsive web </tspan><tspan y="-634.56" x="72.01051 77.050518 82.57036 88.0902 90.494709 92.89921 97.340709 102.38071 105.92131 108.320568 113.84146 119.361309 123.44055 125.845058 131.36492 135.4452 137.8497 143.36956 148.2888 150.6933 156.3948 161.61437 166.65436 171.09586 174.6354 177.0399 182.0799 187.53989 193.05974 195.46424 202.24724 207.4668 212.02695 215.56755 218.20725 220.72725 224.80754 227.44724 229.84648 232.48723 235.12693 239.86663 245.08722 247.42662 251.50691 257.02677 261.46827 265.90977 271.13038 275.20964 279.34977 282.5302 288.05009 290.4546 292.85386 297.5946 299.99385 305.5746 310.79414 313.19865 315.5979 320.33866 325.5582 329.2227 334.44224 339.96315 342.36238 347.88224 352.62196 357.84257 361.50706 363.84754 369.19206 374.4116 376.81608 382.33595 386.00044 391.5203 394.04029 399.25984 403.70133 407.2419 411.32118 413.9619 416.36116 423.80146 426.20597 429.7455 435.26539 437.66987 442.70988 445.11436 448.29377 453.81364 458.25514 463.775 467.8553 470.25453 475.77439 481.2953 483.63468 489.15455 494.37516 498.0344 501.21485 506.7347 510.3992 518.7992 523.8392 529.359 533.80056 539.0211">applications using React and Next.js. I&#x2019;ve successfully delivered over 6+ projects, with a focus on performance </tspan><tspan y="-621.7185" x="72.01056 77.53041 83.050258 86.59086 88.99011 97.390117 99.79462 103.93477 108.97477 112.51432 114.91882 120.438678 125.95852 128.59928 130.93868 134.60318 139.82274 143.90303 149.42288 154.94272 160.46363 164.54288 166.94738 171.68708 176.90767 179.30692 184.82782 190.10723 194.18752 196.58676 201.50705 207.0269 209.66765 212.0669 217.10689 222.62674 228.14765 230.54689 236.06674 240.14704 245.36763 249.00907 252.25357 255.43402 259.09327 261.49778 266.71839 272.23826 277.75813 280.16264 284.9023 287.30155 289.70606 295.22593 298.7665 303.98606 307.65055 310.82997 315.86997 320.31147 325.531 329.6113 332.251 334.6555 343.65507 348.3958 350.79505 354.33564 359.55519 363.99668 369.51655 375.0364 377.44093 381.88243 386.92243 389.32695 391.7314 396.95097 401.5111 407.03099 412.2516 415.91084 419.45143 421.79084 425.87113 431.09175 433.4521 435.8566 441.37648 445.81797 448.22248 453.74235 459.2622 464.48283 468.5631 470.96235 474.32234 479.36235 484.10206 489.1431 493.94264 498.38414 502.0486 504.45314 509.973 513.5125 515.917 519.0985 524.19839 528.9979 534.3382 539.5588 542.7403 545.38 547.6921">optimization, responsive design, and user-friendly interfaces. My technical expertise includes JavaScript (ES6+),  </tspan><tspan y="-608.94" x="72.01056 77.71206 82.9316 87.9716 92.4131 95.95265 98.592357 101.11235 105.19056 107.82606 110.23056 115.93206 121.1516 126.67145 132.13144 136.69159 139.33129 141.73578 148.51879 153.73938 158.23862 161.77922 164.41892 166.93892 171.01506 173.65476 176.05925 181.09925 186.6191 192.07909 194.48358 196.88808 202.40793 205.94748 211.16704 216.08733 219.75183 224.79183 228.33138 230.73587 236.25572 241.17601 243.5805 251.9196 257.43946 262.96037 268.1799 271.8444 277.36427 279.76875 282.168 284.5725 290.09239 293.75688 298.79689 302.46138 304.86064 310.08125 314.16154 316.56077 318.96528 321.36979 326.16935 331.3889 333.79338 338.89323 343.93324 346.33775 348.74226 356.24137 358.64588 364.16575 369.68666 372.08589 377.66557 382.46617 387.2657 389.90644 392.30567 397.8864 403.40629 411.80628 420.20628 422.60554 426.14613 429.68568 434.90629 440.42616 442.82539 446.36598 451.88584 454.2903 461.79048 465.4497 467.85423 471.39378 473.79829 479.31816 484.23844 486.6429 491.02247 493.42698 498.6465 503.68653 509.11506 511.51957 516.5596 522.0794 527.59927">React.js, Redux, Next.js, and integrating modern libraries like Tailwind CSS. Committed to writing clean and </tspan><tspan y="-596.0985" x="72.02109 80.42109 85.46109 87.86559 93.38544 96.92499 101.96499 104.36949 109.889339 114.92934 120.44918 122.85368 128.07324 130.41368 134.85518 140.37607 145.89592 151.11548 153.75623 156.15547 158.79517 161.19966 165.27996 168.8195 173.8595 178.60025 180.9995 186.45949 191.97934 197.50025 202.54024 206.07979 211.29935 216.82025 219.2195 226.71965 229.12415 232.6637 238.12369 240.52819 244.00789 249.52774 254.74834 257.14759 259.5521 264.5921 268.1327 273.35224 277.43254 280.97209 283.37657 285.77583 291.29673 296.8166 302.2766 306.35588 309.89646 313.5557 318.29646 320.69569 324.23628 327.90077 333.1203 338.64018 344.16004 348.24034 350.6448 354.18437 359.70423 362.04466 366.48616 370.15065 375.37019 380.4102 383.95079 389.17033 391.5748 395.6551 400.0966 405.1366 407.5411 412.58113 418.10099 420.44145 425.66099 428.06547 432.1447 437.66563 440.06489 445.58476 449.12535 451.52986 457.0497 462.56959 466.64988 469.28959 471.69407 474.33378 476.97349 485.37348 487.77796 492.9975 498.0375 502.9578 508.17735 511.84184 514.24636 517.7859 523.3057 525.7102 530.15176 535.61178 541.1316 544.67117 548.33566 550.7401 556.25997 561.7798 565.21658 570.4361">maintainable code, I stay updated with the latest industry trends to create scalable solutions. I&#x2019;m eager to contribute </tspan><tspan y="-583.32" x="72.02106 75.56061 81.081508 83.48076 88.52076 90.92526 95.36676 100.88766 103.28691 105.691417 110.731418 116.25126 121.77111 125.43561 130.41576 133.9553 136.3598 141.0995 146.3201 148.71935 152.25995 157.4795 162.5195 170.85965 173.26415 178.4837 184.00356 188.74431 191.14356 194.80806 200.3279 205.84775 214.24774 219.46834 224.98819 228.52774 230.93224 235.97223 241.49208 246.95207 249.29251 254.81237 258.47163 260.87614 265.61585 270.83647 273.24095 275.6402 281.1611 286.68098 292.20085 296.94056 301.98057 305.52116 307.9204 312.66014 317.88075 320.27998 327.78013 333.00074 338.5206 340.92509 346.44496 351.6645 356.4042 361.62483 364.02934 369.5492 375.06907 383.46907 388.6886 394.2095 397.74906 400.1483 405.6692 409.32844 414.84934 417.36933 422.52903 426.97053 430.5111 434.5914 437.17958">to a collaborative team environment and drive innovative web development projects. </tspan></text>
<text xml:space="preserve" transform="matrix(1 0 -0 1 0 792)" font-size="10.5" font-family="Calibri" font-weight="bold"><tspan y="-570.4785" x="72.02106"> </tspan></text>
<text xml:space="preserve" transform="matrix(1 0 -0 1 0 792)" font-size="12" font-family="Calibri" font-weight="bold"><tspan y="-556.26" x="36 41.88 48.48 54.84 60.72 67.5 70.68 76.56 84.479999 90.78 96.600009 108.00001 324 432 574.98">EXPERIENCE     </tspan></text>
<path transform="matrix(1,0,0,-1,0,792)" d="M36 554.1H574.98V554.87899H36Z"/>
<text xml:space="preserve" transform="matrix(1 0 -0 1 0 792)" font-size="10.5" font-family="Calibri" font-weight="bold"><tspan y="-541.02" x="36 40.799554 44.516553 49.797 55.07745 57.6573 62.817 68.4576 72.836109 78.1785 107.9985 323.994 431.997 502.13703 504.54154 511.1418 516.3015 524.817 529.97677 534.17678 538.5573 544.19686 548.39688 551.0974 553.49667 558.4768 563.457 567.1771 569.75698 574.986">Freelance     Damascus, Syria </tspan></text>
<text xml:space="preserve" transform="matrix(1 0 -0 1 0 792)" font-size="10.5" font-family="Calibri" font-style="italic"><tspan y="-528.1785" x="36.010499 40.810049 44.41155 49.8117 55.2087 58.753496 61.997995 67.09785 72.49485 77.89185 80.29111 86.771709 91.81171 96.4317 101.4717 103.876209 109.27531 114.67231 119.71231 123.25499 324.015 432.018 496.0365 501.4335 505.812 509.361 511.70249 517.047 522.3862 527.7307 533.00698 535.41146 540.62997 543.0344 548.43466 552.03616 557.01626 561.1007 566.1407 571.53768 575.0174">Front-End Developer   oct 2023 &#x2013; Present </tspan></text>
<text xml:space="preserve" transform="matrix(1 0 -0 1 0 792)" font-size="10.5" font-family="Calibri"><tspan y="-515.4" x="54.03888">&#x25cf;</tspan></text>
<text xml:space="preserve" transform="matrix(1 0 -0 1 0 792)" font-size="10.5" font-family="ArialMT"><tspan y="-515.4" x="60.40188"> </tspan></text>
<text xml:space="preserve" transform="matrix(1 0 -0 1 0 792)" font-size="10.5" font-family="Calibri" font-weight="bold"><tspan y="-515.4" x="72.04638 77.926387 83.56488 86.14788 88.73088 92.39013 94.789379 100.13387 105.353427 107.75793 111.47807 116.75747 120.957469 126.59807 132.17777 137.81732 142.01732 144.59717 149.57418 154.85463 157.25388 165.05434 170.33374 175.9733 178.37779 183.53749 189.11824 194.7578 197.33765 199.9175 204.29706 209.45781 213.11182 215.69167 221.33226 226.97182">Built 6+ responsive web applications</tspan></text>
<text xml:space="preserve" transform="matrix(1 0 -0 1 0 792)" font-size="10.5" font-family="Calibri"><tspan y="-515.4" x="231.17182 233.57837 239.09822 243.17852 245.58301 251.10286 256.02214 258.4266 264.1281 269.34767 274.38768 278.82917 282.3687 285.00843 287.5284 291.6087 294.01319 299.0532 304.5132 310.03309 312.43757 319.22056 324.4401 329.00025 332.5398 335.18055 337.70054 341.7798 344.42054 346.81977 352.04039 357.56025 363.02027 368.06028 373.58015 378.02165 380.4209 385.9418 390.86106 393.26554 398.7854 402.8657 408.08525 411.74974 414.14897 419.36958 423.92973 429.4496 434.66914 438.33363 440.73814 445.95768 451.47755 455.91905 461.13859 463.54307 468.58308 474.10295 479.6228 482.02729 484.3667 492.7667 498.2876 501.94685 507.4667 512.20748 514.61196 520.1318 525.051"> using React.js and Next.js, enhancing user experience and improving </tspan><tspan y="-502.55854" x="72.05687 77.57671 82.79731 86.45656 89.63701 95.15686 98.82136 107.22136 112.26136 117.781208 122.2227 127.443309 129.8478 135.36765 140.10735 142.51184 147.85109 153.19559 160.69574 163.03514 166.57575 172.0956 175.7601 181.27994 186.79979 191.72008 197.23993 199.63918 204.08068 209.60051 215.12036 220.34096 222.7402 228.2611 233.78095 237.3205 239.72499 248.12499 250.52948 254.66858 259.7086 263.24919 265.6537 271.17356 276.69343 279.0979 284.1379 289.65779 295.17765 297.57688 305.91703 311.43794 316.9578 322.17735 325.84184 331.3617 333.76618 340.4851">performance by 35% through code optimization and modern UI</tspan></text>
<text xml:space="preserve" transform="matrix(1 0 -0 1 0 792)" font-size="12" font-family="TimesNewRomanPSMT"><tspan y="-502.56" x="343.02"> </tspan></text>
<text xml:space="preserve" transform="matrix(1 0 -0 1 0 792)" font-size="10.5" font-family="Calibri"><tspan y="-502.56" x="346.02 351.53987 356.76048 360.83973 363.2999 368.22019 373.74006 376.3755">design. </tspan></text>
<text xml:space="preserve" transform="matrix(1 0 -0 1 0 792)" font-size="10.5" font-family="Calibri"><tspan y="-489.7185" x="53.993989">&#x25cf;</tspan></text>
<text xml:space="preserve" transform="matrix(1 0 -0 1 0 792)" font-size="10.5" font-family="ArialMT"><tspan y="-489.7185" x="60.356988"> </tspan></text>
<text xml:space="preserve" transform="matrix(1 0 -0 1 0 792)" font-size="10.5" font-family="Calibri" font-weight="bold"><tspan y="-489.7185" x="72.00149 74.82599 80.46554 84.130039 89.40943 94.38958 98.109729 103.269428 106.93392 112.21437 117.85392 120.258419 126.198268 131.23827 136.21842 141.43692 144.73708 150.37767 152.95752 155.36202 161.72187 167.30156 170.12606 174.26515 176.66965 181.82936 187.46996 193.10951 195.514 199.17852 204.81807 207.39792 211.11808 216.72299 219.9675 225.60706 230.7678 234.4848 238.1451 243.06435 245.40586 249.60585 254.88629 258.6033 263.58345 266.1633 270.5418 275.82228">Integrated RESTful APIs and third-party services</tspan></text>
<text xml:space="preserve" transform="matrix(1 0 -0 1 0 792)" font-size="10.5" font-family="Calibri"><tspan y="-489.7185" x="280.0275 282.432 284.8323 290.35218 292.7535 298.09803 303.31758 305.658 311.17787 314.84236 320.3622 322.8822 328.10176 332.54325 336.0828 340.1631 342.8028 345.20729 347.6118 353.13166 357.57316 361.23765 366.45826 371.49827 375.5775 377.98204 383.5019 388.42219 390.8214 394.00187 399.52174 405.0416 409.4831 413.02265 415.42716 420.94703 426.52674 431.56675 433.97126 436.37577 439.9153 444.65608 447.0553 452.0953 457.6162 463.13609 465.5353 470.75593 476.2758 480.35609 485.81504 489.47953 491.88404 497.4039 502.3242 504.72343 508.8037 514.0243 519.0643 527.46328 529.86776 535.0883 539.1676 543.2479 545.70809 551.2279 556.2679 559.8085 564.8474"> in 5+ projects, increasing functionality and ensuring seamless data </tspan><tspan y="-476.94" x="72.02252 75.204029 77.60327 83.123119 90.62327 93.02776 98.067768 102.507167 106.167469 111.68731 115.77181 119.856319 122.25556 127.77541 130.23557 133.41707 136.59857 141.81919 145.47843 150.69904 156.21889 159.75844 162.16295 167.6828 170.0831 175.1231 178.66265 181.84415 187.364 191.02429 199.42429 203.50354 206.11803">flow across different platforms. </tspan></text>
<text xml:space="preserve" transform="matrix(1 0 -0 1 0 792)" font-size="10.5" font-family="Calibri"><tspan y="-464.0985" x="54.01503">&#x25cf;</tspan></text>
<text xml:space="preserve" transform="matrix(1 0 -0 1 0 792)" font-size="10.5" font-family="ArialMT"><tspan y="-464.0985" x="60.37803"> </tspan></text>
<text xml:space="preserve" transform="matrix(1 0 -0 1 0 792)" font-size="10.5" font-family="Calibri" font-weight="bold"><tspan y="-464.0985" x="72.02253 78.38553 84.02403 89.66254 92.24554 94.82854 100.11004 105.748538 108.15304 113.13319 120.21333 124.65483 127.415279 134.01558 136.41483 142.05333 145.77242 148.35541 153.99391 158.3745 160.95749 166.596 169.17899 174.46048 178.66048">Applied SOLID principles </tspan></text>
<text xml:space="preserve" transform="matrix(1 0 -0 1 0 792)" font-size="10.5" font-family="Calibri"><tspan y="-464.0985" x="181.04404 183.44434 188.96419 191.36554 196.71004 201.9296 204.33409 209.85395 213.51845 219.03829 221.55829 226.77785 231.21935 234.75995 238.82553 241.40538 243.74582 247.40508 252.62567 256.70494 262.22584 264.6251 268.16569 270.5702 276.09007 281.0093 283.4138 285.8183 291.33818 293.74266 298.78163 301.10105 306.44557 311.78587 319.286 321.68525 325.34974 330.56929 336.09019 341.61006 346.05155 349.59214 351.9914 357.45143 362.97233 365.37156 367.77607 373.29594 375.7004 380.1419 385.66178 391.18269 396.40223 398.8067 404.32658 409.84645 415.3663 417.70677 420.10603 424.54753 429.58753 433.12709 435.5316 441.05146 446.57133 448.9758 454.0158 459.53569 465.05555 467.46003 469.86454 478.2036 483.72453 487.38377 492.90467 497.64439 502.86393 508.3838">in 7+ projects, resulting in a 20% reduction in code duplication and improved </tspan><tspan y="-451.32" x="72.02255 80.422557 85.462558 87.862857 93.382709 96.92331 101.96331 104.36361 109.88346 114.92346 120.44331 122.84361 125.24391 127.63791 131.11867 135.85837 138.49808 140.90259 144.9829 149.42334 154.46334 156.86363 161.90363 167.42348 169.82378 172.21778 174.61808 178.15868 182.89838 185.53809 187.87854 192.91854 198.43839 203.95824 206.36275 209.90335 215.12186 219.20217 222.74277 227.78276 233.30261 235.70291 238.09691 240.49721 244.03781 248.71767 251.12218 256.64518 259.82563 262.22486 265.76545 271.2853 276.5038 278.9083 283.94728 289.46818 294.98805 297.38835 299.78865 304.22804 309.2082 312.74879 315.1428 320.6658 326.18568 330.26597">maintainability, scalability, and testability of the applications.</tspan></text>
<text xml:space="preserve" transform="matrix(1 0 -0 1 0 792)" font-size="10.5" font-family="Calibri" font-weight="bold"><tspan y="-451.32" x="332.90147"> </tspan></text>
<text xml:space="preserve" transform="matrix(1 0 -0 1 0 792)" font-size="10.5" font-family="Calibri"><tspan y="-451.32" x="335.29957"> </tspan></text>
<text xml:space="preserve" transform="matrix(1 0 -0 1 0 792)" font-size="10.5" font-family="Calibri"><tspan y="-438.47853" x="54.015077">&#x25cf;</tspan></text>
<text xml:space="preserve" transform="matrix(1 0 -0 1 0 792)" font-size="10.5" font-family="ArialMT"><tspan y="-438.47853" x="60.378076"> </tspan></text>
<text xml:space="preserve" transform="matrix(1 0 -0 1 0 792)" font-size="10.5" font-family="Calibri" font-weight="bold"><tspan y="-438.47853" x="72.022579 77.12242 82.76302 88.40257 93.56227 99.20182 103.58242 108.86182 114.501369 116.90587 124.70632 130.04558 135.68618 138.08542 143.24617 148.88573 154.52529 157.10514 159.68498 164.06558 169.22528 172.88559 175.46544 181.105 186.74456 189.08499 194.72455 200.005 203.72516 207.02426 212.66486 216.38501 224.96456 230.12425 235.76381 240.14441">Enhanced web application performance</tspan></text>
<text xml:space="preserve" transform="matrix(1 0 -0 1 0 792)" font-size="10.5" font-family="Calibri"><tspan y="-438.47853" x="245.41959 247.82408 250.28423 255.80408 258.2086 263.5531 268.77265 271.17713 276.697 280.36149 285.88136 288.40135 293.62089 298.06239 301.60298 305.68223 308.0101 313.52998 317.61027 320.01478 325.53465 330.4539 332.85838 339.64137 344.86198 349.42213 352.96168 355.60139 358.12138 362.20167 364.84138 367.24586 369.65037 378.05036 383.57023 387.2347 392.75459 397.4943 399.8988 405.41868 410.33897 412.7382 415.1427 420.66258 425.76243 431.2823 433.68678 437.22633 439.63084 448.03083 453.25038 457.33067 459.73515 465.255 469.9947 472.39918 477.68067 482.96217 490.4623 492.8668 497.90577 503.42668 508.94654 511.34577 516.8667 522.08627 524.4907 526.88998 531.6307 536.8502 540.5147 542.9192 548.439 553.3593"> in 5+ projects using Next.js, improving load times by 35% and delivering </tspan><tspan y="-425.63703" x="72.0331 76.113399 81.33294 86.37294 94.77294 97.177448 102.396999 106.477298 110.557598 112.95685 117.03715 122.257747 125.91699 130.71759 135.93715 139.60166 142.8346 146.91489 149.31414 154.83504 160.0546 162.45909 166.11835 171.33895 176.8588 182.37865 187.5982 191.26271 193.6672 199.18706 204.10735 206.50659 209.68704 215.20688 218.87139 221.27063 226.79154 232.0111 235.55065 239.09125 244.3108 247.97531 250.31575 255.8356 259.91487 265.13548 268.79997 271.1992 276.4198 280.97996 286.49983 291.71937 295.38386 297.7831 303.00373 308.5236 312.9651 318.18464 320.79908">seamless server-side rendering for better user experience. </tspan></text>
<text xml:space="preserve" transform="matrix(1 0 -0 1 0 792)" font-size="12" font-family="Calibri" font-weight="bold"><tspan y="-411.42" x="36"> </tspan><tspan y="-396.78" x="36 42.36 49.14 57.239999 61.199998 67.08 73.44 79.3812 85.020008 108 324 432 574.98">PROJECTS     </tspan></text>
<path transform="matrix(1,0,0,-1,0,792)" d="M36 394.62H574.98V395.399H36Z"/>
<text xml:space="preserve" transform="matrix(1 0 -0 1 0 792)" font-size="10.5" font-family="Calibri" font-weight="bold"><tspan y="-381.54" x="36 40.4415 43.0245 48.663003 53.703004 58.984506 64.623 67.4433 73.0818 75.486309 81.066 83.649 89.289608 94.8693 100.1508 107.9985 323.994 431.997">LinkedIn Clone    </tspan></text>
<text xml:space="preserve" transform="matrix(1 0 -0 1 0 792)" font-size="10.5" font-family="Calibri" font-style="italic"><tspan y="-381.54" x="574.9755"> </tspan></text>
<text xml:space="preserve" transform="matrix(1 0 -0 1 0 792)" font-size="10.5" font-family="Calibri" font-weight="bold"><tspan y="-381.54" x="575.994"> </tspan></text>
<text xml:space="preserve" transform="matrix(1 0 -0 1 0 792)" font-size="10.5" font-family="Calibri"><tspan y="-366.777" x="53.99701">&#x25cf;</tspan></text>
<text xml:space="preserve" transform="matrix(1 0 -0 1 0 792)" font-size="10.5" font-family="ArialMT"><tspan y="-366.777" x="60.36001"> </tspan></text>
<text xml:space="preserve" transform="matrix(1 0 -0 1 0 792)" font-size="10.5" font-family="Calibri"><tspan y="-366.777" x="72.00451 77.70601 83.22586 85.62616 88.02646">Built</tspan></text>
<text xml:space="preserve" transform="matrix(1 0 -0 1 0 792)" font-size="12" font-family="TimesNewRomanPSMT"><tspan y="-366.78" x="91.56"> </tspan></text>
<text xml:space="preserve" transform="matrix(1 0 -0 1 0 792)" font-size="10.5" font-family="Calibri"><tspan y="-366.78" x="94.56 99.6 102.00449 105.186 110.70585 113.10615 115.496997 118.74149 122.82179 126.36134 131.40134 135.84284 140.64238 143.04688 147.48628 149.89078 155.35077 160.15032 165.37091 170.89076 173.53046 179.05031 181.4548 185.8963 188.2357 193.75554 199.27645">a full-stack LinkedIn clone</tspan></text>
<text xml:space="preserve" transform="matrix(1 0 -0 1 0 792)" font-size="10.5" font-family="Calibri" font-weight="bold"><tspan y="-366.78" x="204.4845"> </tspan></text>
<text xml:space="preserve" transform="matrix(1 0 -0 1 0 792)" font-size="10.5" font-family="Calibri"><tspan y="-366.78" x="206.88899 212.40885 216.48914 218.89363 224.41349 229.33274 231.73723 237.43874 242.6583 247.69829 252.13979 255.67934 258.08384 263.12385 268.6437 274.10374 276.5082 281.30775 283.71226 287.3715 292.5921 298.11198 303.15199 307.23228 312.4518 315.09153 317.496 321.1605 326.38005 331.8999 334.3044 336.70893 341.15043 346.19044 349.73103 352.13029 357.65119 362.57044 364.872 370.21653 375.43608 377.84056 382.64115 387.8607 392.60038 395.00486 398.18428 403.40489 408.4449 411.98445 417.5043 421.10475 426.32536 430.4046 433.0443 435.4488 437.8533 443.37318 447.81468 450.21919 455.73905 461.25996 463.6592 469.17909 474.09938 476.50386 482.0237 486.104 491.32356 494.98805 497.38728 502.42729 507.94819 511.48774 517.00759 522.22817 527.748 531.28756 533.692 538.13357 543.11367 546.65426 549.05349 554.5733 560.09426">using React and Firebase, replicating 5+ key features, including user authentication </tspan><tspan y="-354.0015" x="72.01654 77.05654 82.576389 88.09623 90.50073 95.54073 97.94524 103.46508 108.20478 113.724628 118.70478 127.10478 129.50928 133.95078 136.35527 141.87512 147.09572 154.59482 158.67511 161.0796 164.259 169.4796 174.69916 180.21901 182.83354">and a dynamic news feed. </tspan></text>
<text xml:space="preserve" transform="matrix(1 0 -0 1 0 792)" font-size="10.5" font-family="Calibri"><tspan y="-341.16" x="54.00905">&#x25cf;</tspan></text>
<text xml:space="preserve" transform="matrix(1 0 -0 1 0 792)" font-size="10.5" font-family="ArialMT"><tspan y="-341.16" x="60.372049"> </tspan></text>
<text xml:space="preserve" transform="matrix(1 0 -0 1 0 792)" font-size="10.5" font-family="Calibri"><tspan y="-341.16" x="72.01655 74.65625 83.05625 88.576099 90.9806 96.201198 104.6012 109.82075 115.34059 118.881198 124.100749 129.6206 131.96212 136.76168 139.16617 142.83068 148.05023 153.57009 158.61008 162.69037 167.90993 170.31024 176.3698 181.8907 185.43025 190.9501 196.1707 201.69055 205.2301 207.6346 212.0761 217.11504 220.65564 223.06014 228.57997 234.07355 236.47805 240.0176 245.53849 247.87789 256.2779 261.3179 266.83778 271.87779 276.79808 282.0176 284.4221 288.50239 293.72193 298.16343 303.6833 307.34779 312.56733 314.9718 317.37107 322.89094 327.81123 330.21574 335.7356 338.14009 341.3195 346.8404 350.49964 352.9041 358.24336 363.58366 368.92396 374.1435 376.54798 382.06785 386.14814 391.36769 395.03218 399.11247 401.75218 404.15666 409.3762 414.89607 418.97636 424.49623 428.1607 430.56523 436.08509 441.00434 443.4088 447.0733 452.59318 458.11305 463.6329 467.7132 471.25276 473.65724 479.1771 484.2171 487.7577 492.7977 495.19694 500.7168 504.3813 506.7858 511.5255 516.5655 521.007 525.74679 528.15127 533.1303 538.65127 544.1102">Implemented Firebase Authentication to manage secure login for 200+ users, ensuring robust data privacy and </tspan><tspan y="-328.3815" x="72.01654 77.05654 81.49804 85.93954 91.45939 96.97923 102.50013 106.03968 108.44418 113.96403 117.628528 123.14838 126.68793 131.84763 136.28913 139.82868 142.23317 147.753 153.27286 155.90103">account protection. </tspan></text>
<text xml:space="preserve" transform="matrix(1 0 -0 1 0 792)" font-size="10.5" font-family="Calibri"><tspan y="-315.54" x="54.01953">&#x25cf;</tspan></text>
<text xml:space="preserve" transform="matrix(1 0 -0 1 0 792)" font-size="10.5" font-family="ArialMT"><tspan y="-315.54" x="60.38253"> </tspan></text>
<text xml:space="preserve" transform="matrix(1 0 -0 1 0 792)" font-size="10.5" font-family="Calibri"><tspan y="-315.54" x="72.02703 77.606739 81.27123 86.490779 91.53078 95.07138 100.29093 105.810779 108.21528 113.25528 115.65978 119.32428 124.54383 129.58383 131.90854 135.15305 138.6926 141.09709 149.49709 154.71665 157.12114 162.64099 167.86159 175.36174 179.441 181.84549 185.02594 190.18564 195.4052 200.91455 203.31905 208.35904 210.76354 213.16278 218.68367 226.18277 228.58727 234.10712 239.0274 241.4319 246.95175 251.031 256.25163 259.9161 263.99537 266.39985 269.9394 275.4603 277.85954 283.3794 288.89927 292.97956 296.52015 298.91938 303.95939 309.4194 314.9403 317.33955 319.74406 325.26393 328.80348 334.02409 337.68858 342.72755 347.16905 350.6487 353.0532 360.55335 362.95787 366.43754 371.9574 374.36189 379.7011 385.0414 390.3817 395.5414 397.9459 403.46577 408.98564 413.06593 416.60548 420.68577 423.09025 428.6101 433.65013 436.04939 438.4539 443.19358 445.83433 448.23356 453.45417 458.97404 464.4939 469.5339 475.05378 479.49528 481.8347 487.3556 492.27485 494.67933 500.1992 504.27949 509.49903 513.1635 515.568 520.78756 526.3074 531.22769 536.26766 541.1879 546.4075 554.8075 560.02706 565.548 569.0875 571.65908">Created a real-time news feed allowing users to post and interact with 100+ posts daily, enhancing user engagement. </tspan></text>
<text xml:space="preserve" transform="matrix(1 0 -0 1 0 792)" font-size="10.5" font-family="Calibri"><tspan y="-302.69853" x="54.040529">&#x25cf;</tspan></text>
<text xml:space="preserve" transform="matrix(1 0 -0 1 0 792)" font-size="10.5" font-family="ArialMT"><tspan y="-302.69853" x="60.403528"> </tspan></text>
<text xml:space="preserve" transform="matrix(1 0 -0 1 0 792)" font-size="10.5" font-family="Calibri"><tspan y="-302.69853" x="72.04803 78.76802 82.30757 84.712078 87.11658 89.52108 93.66018 98.880779 104.40062 106.80512 111.604679 114.00918 117.673679 122.89323 128.41309 133.45308 137.53337 142.75293 145.15743 149.95699 152.36148 156.02599 161.24555 165.32584 168.86539 174.38628 178.04553 183.23252 185.63701 188.81746 194.39716 198.06166 200.4609 204.12541 209.34497 214.38497 216.78946 220.014 223.55356 225.95806 234.35805 239.51775 241.92224 247.4421 252.42224 255.96179 261.00285 266.5227 271.5627 275.64198 280.86259 283.2618 291.6618 296.7018 302.22273 307.26274 312.12214 317.34275 325.74275 330.96229 336.48216 340.02275 342.66246 345.06169 350.10169 354.48228 360.00215 362.40666 367.6262 372.36695 374.7662 380.28608 385.20637 387.61085 392.95008 398.29039 400.93009 406.2704 413.77055 416.17503 421.6949 427.1549 430.69447 433.09898 441.49897 446.7185 449.123 454.163 459.68287 465.20274 467.6072 471.6875 476.90705 481.94706 490.34706 492.6875 497.90705 501.98735 506.06764 508.46687 513.9867 519.0267 522.56729 527.60726 530.0065 535.5274 541.04727 546.5671 551.5472 555.08676 560.3073 564.3866">Utilized Firebase Firestore for real-time database management, achieving 99.9% uptime and seamless data updates </tspan><tspan y="-289.92" x="72.05852 77.09852 81.540019 85.199268 90.71912 94.799419 98.879718 101.27897 109.68002 115.19987 117.59912 121.139728 123.54423 129.06409 131.46334 136.68393 139.08843 144.60828 149.82784 154.56754 156.97203 161.41353 166.63309 170.71338 173.39402">across multiple devices. </tspan></text>
<text xml:space="preserve" transform="matrix(1 0 -0 1 0 792)" font-size="10.5" font-family="Calibri"><tspan y="-277.07853" x="54.05101">&#x25cf;</tspan></text>
<text xml:space="preserve" transform="matrix(1 0 -0 1 0 792)" font-size="10.5" font-family="ArialMT"><tspan y="-277.07853" x="60.41401"> </tspan></text>
<text xml:space="preserve" transform="matrix(1 0 -0 1 0 792)" font-size="10.5" font-family="Calibri"><tspan y="-277.07853" x="72.05851 78.65881 81.05807 84.59867 91.14017 96.661067 102.18091 104.99491">GitHub: </tspan></text>
<text fill="#0b56a5" xml:space="preserve" transform="matrix(1 0 -0 1 0 792)" font-size="10.5" font-family="Calibri"><tspan y="-277.07853" x="107.401508 111.84196 114.24121 119.76211 124.56166 129.72136 135.24121 137.88196 143.40181 145.80106 151.3818 153.78105 159.30089 164.8218">LinkedIn Clone</tspan></text>
<text xml:space="preserve" transform="matrix(1 0 -0 1 0 792)" font-size="10.5" font-family="Calibri"><tspan y="-277.07853" x="170.04451"> </tspan></text>
<path transform="matrix(1,0,0,-1,0,792)" d="M107.34 275.22H169.98V275.88H107.34Z" fill="#0b56a5"/>
<text xml:space="preserve" transform="matrix(1 0 -0 1 0 792)" font-size="10.5" font-family="Calibri" font-weight="bold"><tspan y="-250.26" x="36 41.88 47.039705 51.239706 56.400457 60.117456 62.521955 67.6218 72.000308 77.63881 86.21836 94.798969 100.07837 103.79537 108.173877 113.45328 115.85778 122.21868 127.85823 133.503">Bazar Ecommerce App </tspan></text>
<text xml:space="preserve" transform="matrix(1 0 -0 1 0 792)" font-size="10.5" font-family="Calibri"><tspan y="-235.497" x="54.007509">&#x25cf;</tspan></text>
<text xml:space="preserve" transform="matrix(1 0 -0 1 0 792)" font-size="10.5" font-family="ArialMT"><tspan y="-235.497" x="60.370508"> </tspan></text>
<text xml:space="preserve" transform="matrix(1 0 -0 1 0 792)" font-size="10.5" font-family="Calibri"><tspan y="-235.497" x="72.01501 77.59471 81.25921 86.47875 91.51875 95.05936 100.27891 105.7935 108.198009 113.23801 115.6425 120.861 126.440708 131.9007 140.30069 148.70069 153.92128 157.58054 162.02204 167.2416 169.6419 177.14206 182.36266 187.8825 190.22402 195.264 200.78386 206.30477 208.70401 211.1085 215.55 220.58895 224.12955 226.53404 232.05388 237.55802 239.96251 245.48236 249.56266 251.9619 257.4828 262.40205 264.80653 270.50804 275.72758 280.76759 285.20909 288.74864 291.38835 293.79283 296.97328 302.1928 307.23283 310.7125 316.23237 319.89686 322.30137 327.82124 332.74153 335.14076 340.66166 345.40135 350.9212 355.9612 364.3612 366.76573 371.2072 373.6117 379.13157 382.79606 388.31593 393.8358 399.35566 403.79716 407.3367 409.74119 412.14045 414.54496 418.62525 422.1648 424.5693 430.02934 434.94963 439.0299 441.66963 444.06886 449.10887 451.51335 454.6938 460.21366 462.61817 465.01744 469.75819 472.1574 475.33787 480.85774 486.3776 490.8191 494.35865 496.76316 502.28303 507.8029 512.8429 515.2474 517.65188 521.73117 527.251 532.7708 538.29177 543.8116 546.2108 551.73178 556.651">Created a eCommerce web application using React, featuring dynamic product listings, a fully functional shopping </tspan><tspan y="-222.71849" x="72.0255 76.466999 81.506999 85.166248 88.70685 91.34655 93.687007 98.727008 104.24685 109.76669 112.16595 117.1461 119.550609 123.630908 126.03016 134.43016 139.95107 142.35031 147.3903 150.93091 156.15047 161.67032 164.07482 168.51631 174.03617 179.25572 183.63527 188.43587 193.9557 199.47556 203.01616 205.4154 210.93526 214.59976 220.1196 224.5611 229.78066 233.86095 237.94124 240.561">cart, and a simulated checkout process. </tspan></text>
<text xml:space="preserve" transform="matrix(1 0 -0 1 0 792)" font-size="10.5" font-family="Calibri"><tspan y="-209.87699" x="54.01799">&#x25cf;</tspan></text>
<text xml:space="preserve" transform="matrix(1 0 -0 1 0 792)" font-size="10.5" font-family="ArialMT"><tspan y="-209.87699" x="60.38099"> </tspan></text>
<text xml:space="preserve" transform="matrix(1 0 -0 1 0 792)" font-size="10.5" font-family="Calibri"><tspan y="-209.87699" x="72.02549 74.66519 83.06519 88.58504 90.98954 96.21014 104.61014 109.82969 115.34953 118.89014 124.10969 129.62955 131.97106 136.77062 139.17511 142.83962 148.05918 153.57903 158.61902 162.69931 167.91887 170.31919 176.37874 181.89965 185.4392 190.95905 196.17964 201.6995 205.23905 207.64354 212.08504 217.12503 220.66458 223.06908 228.58892 234.08249 236.48699 239.66744 245.18727 248.84653 251.18697 255.26726 260.4868 264.92829 270.44816 274.11265 279.33219 281.73667 284.13594 289.6558 294.57609 296.9806 302.50047 304.90495 309.94496 315.4648 320.98469 323.38917 327.0484 332.269 337.1893 339.58857 343.66886 347.2084 350.8729 355.9129 359.4535 361.85276 367.37263 372.89353 375.53324 377.93247 386.33247 391.37248 396.89338 401.93235 406.85264 409.25715 414.777 419.6973 422.06398 427.34547 432.6847 438.02397 443.2435 445.64799 451.16786 455.24815 460.46769 464.13218 466.53666 471.57667 476.01817 480.45967 485.91969 491.43955 496.9594 500.5 504.57926 507.20848">Implemented Firebase Authentication for secure login and registration, managing 200+ user accounts. </tspan></text>
<text xml:space="preserve" transform="matrix(1 0 -0 1 0 792)" font-size="10.5" font-family="Calibri"><tspan y="-197.09848" x="54.028474">&#x25cf;</tspan></text>
<text xml:space="preserve" transform="matrix(1 0 -0 1 0 792)" font-size="10.5" font-family="ArialMT"><tspan y="-197.09848" x="60.39147"> </tspan></text>
<text xml:space="preserve" transform="matrix(1 0 -0 1 0 792)" font-size="10.5" font-family="Calibri"><tspan y="-197.09848" x="72.03597 76.835529 82.35642 86.79792 92.317768 96.39806 101.61761 107.138507 109.53776 115.05761 120.57851 122.97776 128.49762 133.71822 136.12271 138.52196 143.26271 148.48227 152.14678 154.54602 160.06693 164.98618 167.39067 172.43067 174.82991 178.9102 184.1308 189.17079 197.57079 199.97003 205.19063 209.26988 213.35018 215.75467 221.27452 225.35482 230.57437 234.23888 236.61298 241.83254 246.39269 251.91254 257.13316 260.79765 263.1969 268.4175 273.93739 278.37889 283.5995 285.99873 293.49888 295.90339 299.44294 304.96385 307.30323 315.70323 321.22309 326.744 331.96354 335.62803 341.1479 343.54713 350.26713 352.90788 356.98713 363.70713 369.1671 371.5716 377.09147 382.31208 386.39134 388.79585 393.71614 399.236 401.8757 404.28019 406.67945 415.07945 420.60035 424.19975 429.7196 434.46037 436.85963 442.38053 447.29978 449.70426 455.22413 459.3044 464.52397 468.18846 470.59294 475.81248 481.33235 486.25263 491.29264 496.21293 501.43247 509.83247 515.052 520.57296 524.1125 526.51699 532.0368 536.77658 539.117 544.45626 549.7965 557.2967 559.89749">Focused on delivering a seamless user experience with modern UI/UX design, improving user engagement by 20%. </tspan></text>
<text xml:space="preserve" transform="matrix(1 0 -0 1 0 792)" font-size="10.5" font-family="Calibri"><tspan y="-184.25698" x="54.03897">&#x25cf;</tspan></text>
<text xml:space="preserve" transform="matrix(1 0 -0 1 0 792)" font-size="10.5" font-family="ArialMT"><tspan y="-184.25698" x="60.40197"> </tspan></text>
<text xml:space="preserve" transform="matrix(1 0 -0 1 0 792)" font-size="10.5" font-family="Calibri"><tspan y="-184.25698" x="72.04647 77.146327 82.66617 85.07067 89.15097 91.550228 97.07112 100.73037 106.25022 108.77022 113.99082 118.43232 121.97292 124.37218 128.45247 133.97232 139.49321 146.99231 151.4338 156.4738 160.5541 165.77365 169.85395 172.25319 177.47379 182.03394 187.55379 192.77335 196.43785 199.9774 202.3819 206.46219 211.68175 214.08625 216.49074 222.01059 224.40984 227.59029 231.25479 236.77463 242.29448 245.81098 249.05548 254.27504 259.79594 265.3158 267.71504 273.2349 278.4555 283.19523 288.41584 290.8151 296.33497 301.85588 310.25587 315.4754 320.99528 324.53587 327.17558 329.58006 333.6593 337.1999 342.18006 345.7196 350.93916 353.34364 361.68379 366.7238 372.24366 377.28367 382.20396 387.4235 395.8235 401.0441 406.56398 410.10353 412.74427 415.08366 420.0638 425.58369 431.10356 433.50804 435.9073 441.4282 444.96775 450.18836 455.1076 458.7721 463.8121 467.35166 469.75617 475.27604 480.19633 482.6008 487.6408 493.16069 496.70024 502.2201 507.4407 512.9605 516.50009 518.90457 523.2841 528.3241 531.8647 534.26919 539.789 545.30886">This project showcases expertise in front-end development, state management, and integrating authentication </tspan><tspan y="-171.41547" x="72.05698 76.137279 81.35682 85.02132 89.76102 92.16552 96.60702 101.827617 105.90791 108.59698">services. </tspan></text>
<text xml:space="preserve" transform="matrix(1 0 -0 1 0 792)" font-size="10.5" font-family="Calibri"><tspan y="-158.63697" x="54.05998">&#x25cf;</tspan></text>
<text xml:space="preserve" transform="matrix(1 0 -0 1 0 792)" font-size="10.5" font-family="ArialMT"><tspan y="-158.63697" x="60.422979"> </tspan></text>
<text xml:space="preserve" transform="matrix(1 0 -0 1 0 792)" font-size="10.5" font-family="Calibri"><tspan y="-158.63697" x="72.067478 78.66778 81.06703 84.607639 91.14914 96.66898 102.19197 105.01647">GitHub: </tspan></text>
<text fill="#0b56a5" xml:space="preserve" transform="matrix(1 0 -0 1 0 792)" font-size="10.5" font-family="Calibri"><tspan y="-158.63697" x="107.41047 113.110919 118.15092 122.290019 127.33002 130.99452 133.33603 138.43587 142.87737 148.39826 156.79825 165.19824 170.4178 174.0823 178.5238 183.7444 186.14366 192.18747 197.70732">Bazar Ecommerce App</tspan></text>
<text xml:space="preserve" transform="matrix(1 0 -0 1 0 792)" font-size="10.5" font-family="Calibri"><tspan y="-158.63697" x="203.22296"> </tspan></text>
<path transform="matrix(1,0,0,-1,0,792)" d="M107.34 156.78H203.159V157.44H107.34Z" fill="#0b56a5"/>
<text xml:space="preserve" transform="matrix(1 0 -0 1 0 792)" font-size="10.5" font-family="Calibri" font-weight="bold"><tspan y="-133.8" x="36 41.5755 47.214 50.931 54.5913 57.903 63.5415 66.1245 68.7075 74.3481 76.74735 86.28765 91.56915 97.20766 101.40765 103.990657 107.650959 112.93246">Portfolio Website </tspan></text>
<text xml:space="preserve" transform="matrix(1 0 -0 1 0 792)" font-size="10.5" font-family="Calibri"><tspan y="-119.037" x="53.997">&#x25cf;</tspan></text>
<text xml:space="preserve" transform="matrix(1 0 -0 1 0 792)" font-size="10.5" font-family="ArialMT"><tspan y="-119.037" x="60.36"> </tspan></text>
<text xml:space="preserve" transform="matrix(1 0 -0 1 0 792)" font-size="10.5" font-family="Calibri"><tspan y="-119.037" x="72.0045 78.48405 83.70464 88.44434 93.66494 96.06419 101.584049 107.10494 112.324489 117.84433 120.24883 125.28883 127.69334 133.15334 138.3729 142.0374 146.11666 151.63755 157.1574 162.19739 164.59664 167.00113 172.52098 178.04082 181.70532 185.24488 188.42533 194.00502 196.40952 198.81401 204.33385 206.7331 214.23325 219.45384 224.9737 229.05399 231.45323 234.99384 240.183 242.5875 248.10735 252.18764 254.64778 260.16764 265.08689 267.49137 273.19288 278.4124 283.45243 287.89393 291.43348 294.07319 296.47767 299.6581 304.87767 309.91767 313.39735 318.91825 322.57749 324.982 330.50187 335.42216 337.82139 342.8614 345.26588 348.93037 354.1499 358.2302 363.75007 369.26994 374.79084 378.8701 381.2746 386.0143 391.23493 393.63417 399.15403 404.37464 408.45494 410.8542 415.77449 421.29435 423.93406 426.33854 430.47868 438.87867 444.39854 449.9184 453.45899 458.97886 461.37809 466.899 471.939 476.6787 479.08323 484.00248 489.04249 492.58308 494.98234 500.50325 506.0231 508.6628 511.0673 516.1073 521.62716 527.08718 529.4864 531.89089 537.4107 540.9513 546.17086 549.7713 554.8113 559.2528 562.7934 565.1926 569.93338 575.1529">Developed a personal portfolio website using React, featuring a responsive design, smooth navigation, and interactive </tspan><tspan y="-106.2585" x="72.004489 77.22404 79.62854 84.849147 93.249149 98.4687 103.98854 107.529148 111.60839 114.01289 117.552448 123.07334 125.472599 129.55289 135.07274 140.59258 148.09273 152.53423 157.57422 161.65348 166.87407 169.27332 174.61362 179.95392 185.17348 187.51392 193.03377 196.69828 202.21811 204.73812 209.95767 214.39917 217.93872 222.01902 224.42351 229.4635 234.98336 240.5032 242.90245 246.9229 251.7235 254.12274 256.52726 258.93177 263.01103 265.68748">elements to showcase 10+ projects and skills. </tspan></text>
<text xml:space="preserve" transform="matrix(1 0 -0 1 0 792)" font-size="10.5" font-family="Calibri"><tspan y="-93.417" x="54.007478">&#x25cf;</tspan></text>
<text xml:space="preserve" transform="matrix(1 0 -0 1 0 792)" font-size="10.5" font-family="ArialMT"><tspan y="-93.417" x="60.370477"> </tspan></text>
<text xml:space="preserve" transform="matrix(1 0 -0 1 0 792)" font-size="10.5" font-family="Calibri"><tspan y="-93.417" x="72.01498 78.73497 82.27452 84.67902 87.08353 89.48803 93.62713 98.847728 104.36757 106.77207 112.47357 117.694179 122.73418 127.175678 130.71628 133.05568 138.75719 144.27703 149.79688 153.33748 158.55704 162.22154 164.86124 167.26049 172.06108 175.72559 180.76558 189.16558 194.32527 197.98978 200.38903 209.38962 214.90946 218.449 220.8535 226.37334 231.89319 234.53394 236.93318 241.91333 247.43318 252.95304 255.29347 260.39335 265.43336 267.83787 270.23713 277.73728 280.14179 285.66166 291.18153 293.586 299.16569 303.96629 308.71647 311.35618 313.76066 316.22084 324.62083 330.1407 333.80519 339.32505 344.06477 346.46928 351.98915 356.90943 359.30867 364.82957 368.9088 374.18928 377.8485 380.253 385.47254 390.99345 395.9127 400.9527 405.873 411.0936 419.49256 424.71318 430.23304 433.77259 436.17707 441.69694 446.43769 448.8369 454.17723 459.51753 466.9568 469.36128 474.40129 479.92115 485.441 487.8455 493.0052 498.52507 502.60536 508.1252 511.7897 514.1942 519.71408 524.63436">Utilized React Router, Framer Motion, and Tailwind CSS, improving user engagement by 25% and ensuring </tspan><tspan y="-80.638507" x="72.01497 75.67947 80.89901 84.97931 90.49915 96.019008 101.53885 105.61915 108.02365 112.76335 117.983959 123.5038 128.7832 132.92336 137.00365 139.4029 144.44289 148.88439 152.54889 158.06873 162.14902 166.22827 168.63277 173.67276 176.07726 178.4765 180.881 186.40085 191.59947 196.33917 198.74367 203.18517 208.40473 210.80922 214.34877 219.08847 224.60938 229.82894 233.90923 236.53948">responsiveness across all device types. </tspan></text>
<text xml:space="preserve" transform="matrix(1 0 -0 1 0 792)" font-size="10.5" font-family="Calibri"><tspan y="-67.797008" x="54.017976">&#x25cf;</tspan></text>
<text xml:space="preserve" transform="matrix(1 0 -0 1 0 792)" font-size="10.5" font-family="ArialMT"><tspan y="-67.797008" x="60.380975"> </tspan></text>
<text xml:space="preserve" transform="matrix(1 0 -0 1 0 792)" font-size="10.5" font-family="Calibri"><tspan y="-67.797008" x="72.025478 78.62578 81.02503 84.565639 91.10713 96.626979 102.14682 104.967128">GitHub: </tspan></text>
<text fill="#0b56a5" xml:space="preserve" transform="matrix(1 0 -0 1 0 792)" font-size="10.5" font-family="Calibri"><tspan y="-67.797008" x="107.36847 112.76862 118.28847 121.94877 125.48832 128.66982 134.18967 136.58892 138.98921 144.50907 146.91358 156.27329 161.4939 167.01375 171.09825 173.4975 177.0381">Portfolio Website</tspan></text>
<text xml:space="preserve" transform="matrix(1 0 -0 1 0 792)" font-size="10.5" font-family="Calibri"><tspan y="-67.797008" x="182.24398"> </tspan></text>
<path transform="matrix(1,0,0,-1,0,792)" d="M107.34 65.94H182.22V66.600009H107.34Z" fill="#0b56a5"/>
</svg>
