<svg xmlns="http://www.w3.org/2000/svg" xmlns:xlink="http://www.w3.org/1999/xlink" version="1.1" width="612" height="792" viewBox="0 0 612 792">
<text xml:space="preserve" transform="matrix(1 0 -0 1 0 792)" font-size="12" font-family="ArialMT"><tspan y="-762.72" x="36"> </tspan></text>
<text xml:space="preserve" transform="matrix(1 0 -0 1 0 792)" font-size="12" font-family="ArialMT"><tspan y="-37.799989" x="36"> </tspan></text>
<text xml:space="preserve" transform="matrix(1 0 -0 1 0 792)" font-size="12" font-family="Calibri" font-weight="bold"><tspan y="-744.60006" x="36 41.88 49.440004 57.300004 63.66 70.92 76.86 80.04 88.14">EDUCATION</tspan></text>
<text xml:space="preserve" transform="matrix(1 0 -0 1 0 792)" font-size="10.5" font-family="Calibri" font-weight="bold"><tspan y="-744.6" x="96.06"> </tspan></text>
<text xml:space="preserve" transform="matrix(1 0 -0 1 0 792)" font-size="12" font-family="Calibri" font-weight="bold"><tspan y="-744.6" x="108 324 432 574.98">    </tspan></text>
<path transform="matrix(1,0,0,-1,0,792)" d="M36 742.44H574.98V743.22006H36Z"/>
<text xml:space="preserve" transform="matrix(1 0 -0 1 0 792)" font-size="10.5" font-family="Calibri" font-weight="bold"><tspan y="-729.36" x="36 42.6003 47.76 56.279699 61.439397 65.6394 70.02 75.659549 79.85954 82.264049 89.103748 94.74329 97.382999 102.35999 107.64044 111.35954 115.55954 118.13939 121.79969 126.72 324.00453 432.0075 434.412 436.81123 439.15165 441.55088 443.8913 446.29579 448.63517 451.03965 453.44413 455.7835 458.188 460.52738 462.93186 465.27125 467.67573 470.0802 472.4196 474.82408 477.16346 479.56794 481.90733 484.3118 486.65223 489.05146 491.39189 493.7911 496.1956 498.536 500.93525 503.33973 509.94 515.09976 523.61526 528.77499 532.975 537.3555 542.99508 547.19509 549.8956 552.29489 557.275 562.2552 565.97537 568.5552 573.7149">Damascus University                                Damascus, Syria </tspan></text>
<text xml:space="preserve" transform="matrix(1 0 -0 1 0 792)" font-size="10.5" font-family="Calibri" font-style="italic"><tspan y="-729.36" x="576.1194"> </tspan></text>
<text xml:space="preserve" transform="matrix(1 0 -0 1 0 792)" font-size="10.5" font-family="Calibri" font-style="italic"><tspan y="-716.5185" x="36.010499 41.470499 46.870649 55.150949 60.547948 65.94495 69.48555 74.52555 78.12705 80.531558 85.63141 91.02841 96.425418 98.82467 104.22167 109.26167 114.301677 117.903179 120.30768 125.70468 131.04599 324.00453 432.0075 434.412 436.81123 439.15165 441.552 446.65187 451.212 456.609 461.64903 465.96873 469.5093 474.54933 479.94633 482.34663 488.9469 492.48646 497.88346 503.28047 508.67747 514.07449 517.614 520.0185 525.41867 530.8156 533.4553 535.7968 542.69638 547.07589 550.55667 552.89816 558.2384 563.5787 568.9179 574.209">Computer Engineering      Expected Graduation, Oct 2026 </tspan></text>
<text xml:space="preserve" transform="matrix(1 0 -0 1 0 792)" font-size="10.5" font-family="CourierNewPSMT"><tspan y="-703.74" x="71.2905">o</tspan></text>
<text xml:space="preserve" transform="matrix(1 0 -0 1 0 792)" font-size="10.5" font-family="ArialMT"><tspan y="-703.74" x="77.5905"> </tspan></text>
<text xml:space="preserve" transform="matrix(1 0 -0 1 0 792)" font-size="10.5" font-family="Calibri" font-weight="bold"><tspan y="-703.74" x="89.2875 94.8672 100.507808 106.147357 110.5269 115.80735 121.4469 125.1072 128.82735 133.98705 137.64105 140.2209 145.8615 151.50106 155.70105 158.58119">Concentrations: </tspan></text>
<text xml:space="preserve" transform="matrix(1 0 -0 1 0 792)" font-size="10.5" font-family="Calibri"><tspan y="-703.74" x="160.992 166.39215 170.05666 175.57649 180.49575 184.16025 189.20024 197.60024 206.00023 208.40473 213.92458 218.84487 221.24411 226.2841 231.80501 237.32486 239.7241 245.42562 250.94545 256.4653 261.98518 265.4659 267.86518 272.30668">Programming and Robotics</tspan></text>
<text xml:space="preserve" transform="matrix(1 0 -0 1 0 792)" font-size="10.5" font-family="Calibri" font-weight="bold"><tspan y="-703.74" x="276.42903"> </tspan></text>
<text xml:space="preserve" transform="matrix(1 0 -0 1 0 792)" font-size="10.5" font-family="CourierNewPSMT"><tspan y="-690.8985" x="71.29051">o</tspan></text>
<text xml:space="preserve" transform="matrix(1 0 -0 1 0 792)" font-size="10.5" font-family="ArialMT"><tspan y="-690.8985" x="77.590518"> </tspan></text>
<text xml:space="preserve" transform="matrix(1 0 -0 1 0 792)" font-size="10.5" font-family="Calibri" font-weight="bold"><tspan y="-690.8985" x="89.28751 96.007518 101.58722 107.947078 110.82407">GPA: </tspan></text>
<text xml:space="preserve" transform="matrix(1 0 -0 1 0 792)" font-size="10.5" font-family="Calibri"><tspan y="-690.8985" x="113.227519 118.572017 123.91126 126.55201 131.83142 135.91173 141.25623 146.53563">81.5/100</tspan></text>
<text xml:space="preserve" transform="matrix(1 0 -0 1 0 792)" font-size="10.5" font-family="Calibri" font-weight="bold"><tspan y="-690.8985" x="151.88013"> </tspan></text>
<text xml:space="preserve" transform="matrix(1 0 -0 1 0 792)" font-size="10.5" font-family="CourierNewPSMT"><tspan y="-678.057" x="71.29051">o</tspan></text>
<text xml:space="preserve" transform="matrix(1 0 -0 1 0 792)" font-size="10.5" font-family="ArialMT"><tspan y="-678.057" x="77.590518"> </tspan></text>
<text xml:space="preserve" transform="matrix(1 0 -0 1 0 792)" font-size="10.5" font-family="Calibri" font-weight="bold"><tspan y="-678.057" x="89.28751 95.22736 100.50782 103.08767 108.24737 111.90767 117.188129 122.827678 125.23218 130.81189 136.4504 142.08995 145.80695 149.9471 155.22754 163.02799 168.66649 172.38349 177.42348">Related Coursework:</tspan></text>
<text xml:space="preserve" transform="matrix(1 0 -0 1 0 792)" font-size="10.5" font-family="Calibri"><tspan y="-678.057" x="180.31201 182.7165 189.19606 194.23606 197.77666 202.81665 205.22115 209.96085 213.5004 217.1649 222.68476 227.12625 230.6658 236.18566 239.85016 245.06972 249.15001 251.5545 258.69453 261.09376 267.15437 269.55888 274.47813 279.998 283.66249 286.067 289.60655 295.1264 303.5264 307.6067 310.2464 312.65089 315.05537 320.63505 326.1549 334.5549 340.07478 345.59465 349.13523 354.35478 358.01927 360.42375 367.38313 371.0476 375.9679 381.0079 386.46794 388.8672 393.00733 398.04734 401.58793 403.98719 409.5081 415.02796 417.4272 424.5672 426.97169 432.37184 436.03108 441.55198 446.5321 450.19136 455.23136 463.63136 472.03135 474.43586 479.95573 484.876 487.51573 489.9202 495.49989 501.01976 509.41975 514.9396 517.34408 522.8639 527.9039 531.44448 536.9643 540.62356 543.028 547.46957 551.5488 554.1896"> Data Structures &#x0026; Algorithms,  Computer Organization &#x0026; Programming, Combinatorics, </tspan><tspan y="-665.2785" x="89.298007 96.25846 101.778308 104.2983 109.517848 113.95934 117.50101 120.74551 127.70596 131.36522 133.76972 138.98928 144.51018 147.98989 153.20944 158.73035 161.1296 166.52974 170.19425 175.71408 180.63437 184.29363 189.33362 197.73361 206.1336 208.5381 214.05796 218.97824 221.61794 224.02243 228.82199 232.3626 237.40259 240.94214 243.34664 247.42693 250.96648 253.37097 257.81248 261.89277 264.23216 271.37217 273.77665 279.83619 285.3571 290.87696 293.2762 295.68074 300.12223 305.16224 308.70179 311.1063 316.62617 322.14604 326.1885">Object-Oriented Programming, Statistics &#x0026; Applications </tspan></text>
<text xml:space="preserve" transform="matrix(1 0 -0 1 0 792)" font-size="10.5" font-family="Calibri" font-weight="bold"><tspan y="-652.437" x="89.30852"> </tspan></text>
<text xml:space="preserve" transform="matrix(1 0 -0 1 0 792)" font-size="12" font-family="Calibri" font-weight="bold"><tspan y="-638.22" x="36 41.7 48.24 51.420003 56.520006 61.620004 67.26 108 324 432 574.98">SKILLS     </tspan></text>
<path transform="matrix(1,0,0,-1,0,792)" d="M36 636.06H574.98V636.84H36Z"/>
<text xml:space="preserve" transform="matrix(1 0 -0 1 0 792)" font-size="10.5" font-family="Calibri" font-weight="bold"><tspan y="-622.98" x="36 41.579706 45.299856 50.940458 55.91956 59.63971 64.79941 73.38001 81.895519 84.475368 90.11597 95.15597 98.03297">Programming: </tspan></text>
<text xml:space="preserve" transform="matrix(1 0 -0 1 0 792)" font-size="10.5" font-family="Calibri"><tspan y="-622.98" x="100.4385 102.843 109.38345 114.4833 123.48285 127.927509 130.5105 132.90451 138.48001 143.2785 148.077 150.7167 153.1275 156.42766 161.46765 166.20735 171.24735 176.04795 180.48944 184.15395 186.55844 192.0783 195.61785 198.25754 200.66204 205.76187 210.80187 213.20636 215.54576 223.04592 225.45041 230.97026 236.49011 238.8946 244.4743 248.5546 252.60449 255.23999 257.6445 264.4275 269.6481 274.2072 277.7478 280.3875 282.9075 286.9878 289.6275 292.032 297.73353 302.95307 307.99308 312.43458 315.97517 318.61488 321.13487 325.21516 327.8475 330.189 335.8905 341.11006 346.6299 352.14979 356.70994 361.80979 367.32966 372.85057 375.24983 380.0504 382.45494 385.99449 388.6342 390.97569 396.6772 401.8978 406.9378 411.3793 414.9199 417.3202 423.0217 428.54158 434.06144 437.60203 442.82157 446.48606 449.06593 451.4074 457.10893 462.32954 467.36955 471.81105 475.35163 477.75086 484.831 490.3519 495.57145 499.23594 503.97563 506.526 508.8675 514.569 519.7885 524.8285 529.27 532.8106 535.2151 540.01467 545.5345 549.199 557.599 560.0035 564.7905 567.132 574.27206"> HTML, CSS, JavaScript, Tailwind Css, Next.js, React.js, ReduxToolkit, React Router, React Query, React Formik &#x0026; </tspan><tspan y="-610.1385" x="36.010499 40.7502 46.27005 51.79095 54.430654 56.832 61.63155 65.29605 70.33605 78.73605 83.95666 87.615909 89.957408 98.956958 104.47785 108.0174 110.421909 115.94176 121.4616 124.1013 126.5016 133.0935 135.4938 139.03336 141.43051 147.31052 152.53008 156.19458 160.27487 162.67937 168.1992 173.71906 176.11202 181.68752 187.20737 192.72722 196.26782 199.92707 205.44692 207.90602 210.54152">yup, Framer Motion, Git Version Control. </tspan></text>
<text xml:space="preserve" transform="matrix(1 0 -0 1 0 792)" font-size="10.5" font-family="Calibri" font-weight="bold"><tspan y="-597.36" x="36.00003 41.57553 45.29253 50.93103 56.56953 59.15253 64.43403 72.95373 75.35823 80.33838 85.97793 88.56093 93.54108 96.12408 101.76257 106.73957 109.618679">Problem Solving: </tspan></text>
<text xml:space="preserve" transform="matrix(1 0 -0 1 0 792)" font-size="10.5" font-family="Calibri"><tspan y="-597.36" x="112.02318 118.62348 123.66348 126.06274 131.58365 136.8032 142.32306 144.72756 149.76755 155.22754 159.96724 165.00724 170.52709 174.96858 180.18814 185.708 188.11249 193.63234 197.29685 202.81668 208.33654 210.74103 215.96059 224.33853 227.58304 231.66754 237.1874 239.58664 244.3274 246.72664 252.24755 257.1668 259.5713 263.6558 268.45536 270.85569 273.25495 275.71513 279.79963 282.18305 287.22306 292.74293 298.2628 300.66728 306.18714 311.22715 316.747 322.26689 326.34605 329.59056 335.05058 340.57044 342.9749 348.19447 352.7546 358.27449 363.4951 367.15434 369.55885 374.77946 380.29933 384.7408 389.96144 392.36067 394.7011 400.22099 402.62547 408.14533 410.54985 415.4691 420.97206 424.21656 429.73643 433.4009 438.62046 442.70075 446.78105 452.3009 455.9654 461.18495 463.58943 468.80897 474.32884 479.06855 481.47306 485.13755 490.6574 496.17729 504.57728 509.79789 515.3177 518.85726 522.93759 525.34207 530.8619 535.6016">Gained advanced problem-solving skills and hands-on experience in high-pressure environments by </tspan><tspan y="-584.5185" x="36.021059 40.46256 45.98241 54.382413 59.902265 65.12181 68.662418 71.06167 76.582569 81.501819 83.90106 89.24136 91.64587 95.125568 97.52586 105.925868 111.14542 115.222568 117.62707 120.03157 125.551418 127.95067 131.49127 137.01113 142.23069">competing 2 times in the </tspan></text>
<text xml:space="preserve" transform="matrix(1 0 -0 1 0 792)" font-size="10.5" font-family="Calibri" font-weight="bold"><tspan y="-584.5185" x="144.63518 151.23548 156.39517 164.91068 170.07143 174.27143 178.65097 184.29051 188.49051 190.88556 196.46527 202.10587 204.68888 207.27188 212.55338 217.53038 220.11338 225.27307 228.93337 234.21486 236.61936 242.19905 245.91919 251.55875 256.53575 260.2559 265.4156 273.9962 282.51588 285.09889 290.73738 295.71437 298.1136 303.6933 309.3339 314.97239 318.6327 323.91419 328.1142 331.7136 334.05403 337.35417 343.9534 349.5331 355.11387 360.69358">Damascus Collegiate Programming Contest (DCPC)</tspan></text>
<text xml:space="preserve" transform="matrix(1 0 -0 1 0 792)" font-size="10.5" font-family="Calibri"><tspan y="-584.5185" x="363.92555 366.56526 368.96974 372.63005 377.67005 383.13008 387.92964 390.27009 395.78996 400.71446 403.11369 408.1537 416.55369 422.07356 427.5934 432.5179 434.9224 440.26167 445.60618 450.76588 453.17039 456.7099 461.9305 466.97053 475.3705 479.44978 482.00856">, ranking among 30+ teams. </tspan></text>
<text xml:space="preserve" transform="matrix(1 0 -0 1 0 792)" font-size="12" font-family="Calibri" font-weight="bold"><tspan y="-558.3" x="36 43.08 49.56 52.500005 58.920007 65.340007 69.48 75.54 81.6 85.86 88.8 95.28 100.979999 107.99999 324 432 574.98">Volunteering     </tspan></text>
<path transform="matrix(1,0,0,-1,0,792)" d="M36 556.14H574.98V556.92007H36Z"/>
<text xml:space="preserve" transform="matrix(1 0 -0 1 0 792)" font-size="10.5" font-family="Calibri" font-weight="bold"><tspan y="-543.06" x="36 41.93985 47.819849 53.395349 57.595346 59.936845 65.15534 70.43474 75.59444 84.121509 86.52601 88.93051 91.26991 93.674419 96.01382 98.41832 100.82282 103.162227 105.56673 107.90613 110.31063 112.65003 115.054538 117.45904 119.79844 122.20294 124.54234 126.946849 129.28728 131.68653 134.09102 136.43042 138.83492 141.17536 143.5746 145.91504 148.31429 150.65473 153.05922 155.39862 157.80312 160.20236 162.5428 164.9473 167.2867 169.6912 172.0306 174.43509 176.83434 179.17478 181.57927 183.91867 186.32317 188.66257 191.06707 193.47156 195.81096 198.21546 200.55486 202.95935 205.29979 207.69904 210.03948 212.43872 214.77916 217.1784 219.5829 221.92334 224.32259 226.66303 229.06227 231.40271 233.8072 236.20645 238.54689 240.94614 243.28658 245.69107 248.03047 250.43497 252.83422 255.17465 257.57914 259.91853 262.323 264.66239 267.06687 269.40626 271.81074 274.15116 276.55039 278.95487 281.2953 283.69453 286.03495 288.43418 290.7746 293.17384 295.5783 297.91874 300.31797 302.6584 305.05763 307.39805 309.80253 312.20176 314.54219 316.9414 319.28184 321.6863 324.0257 326.43019 328.76957 331.17405 333.51344 335.9179 338.3224 340.66178 343.06626 345.40669 347.8059 350.14634 352.54557 354.95005 357.28944 359.6939 362.03434 364.43357 366.774 369.17323 371.5777 373.91813 376.31736 378.65779 381.057 383.2245 385.62898 387.96836 390.37284 392.71223 395.1167 397.52119 399.86058 402.26506 404.60444 407.0089 409.34934 411.74858 414.15306 416.49244 418.8969 421.23735 423.63658 425.977 428.37623 430.7807 433.1201 435.52458 437.865 440.26423 442.60466 445.00389 447.3443 449.74879 452.08818 454.49266 456.89189 459.2323 461.63679 463.97618 466.38066 468.72004 471.1245 473.529 475.86839 478.27287 480.61225 483.01673 485.3561">RBCs Team                                                                                                                                                                          </tspan></text>
<text xml:space="preserve" transform="matrix(1 0 -0 1 0 792)" font-size="10.5" font-family="Calibri" font-weight="bold" font-style="italic"><tspan y="-543.06" x="487.7606 494.12046 499.64033 503.35734 505.76185 511.0423 516.38156 521.726 527.0705 529.3845 534.54006 536.9445 543.9648 548.2845 551.949 554.29049 559.63497 564.97946 570.2588 575.6033">Apr 2022 &#x2013; Oct 2023 </tspan></text>
<text xml:space="preserve" transform="matrix(1 0 -0 1 0 792)" font-size="10.5" font-family="Calibri"><tspan y="-528.297" x="54.007539">&#x25cf;</tspan></text>
<text xml:space="preserve" transform="matrix(1 0 -0 1 0 792)" font-size="10.5" font-family="ArialMT"><tspan y="-528.297" x="60.370538"> </tspan></text>
<text xml:space="preserve" transform="matrix(1 0 -0 1 0 792)" font-size="10.5" font-family="Calibri"><tspan y="-528.297" x="72.01504 78.49458 83.71519 87.79549 90.19474 95.11504 100.63489 105.85549 111.375339 113.77458 118.815639 124.33548 129.85533 132.19684 137.71775 142.9373 145.3418 147.74105 152.4818 157.70136 161.36586 166.58542 172.10527 174.50559 179.84589 185.18619 190.40575 192.74726 195.1465 200.3671 204.8086 208.3492 213.86905 217.53356 222.75312 226.81653 229.22103 234.74086 240.26071 242.6652 246.20476 251.36551 255.807 261.32688 266.84779 269.24705 273.68855 278.72856 281.1278 283.5323 288.5723 294.09217 299.61308 302.0123 304.4168 309.87684 315.3967 320.91658 324.99687 328.5364 332.2009 336.94059 339.34507 342.8846 348.40553 353.92539 356.32466 360.76615 364.85066 367.24989 370.73063 376.2505 378.62553 383.97004 389.3093 394.6538 399.87443 402.27366 406.35395 409.8935 415.4144 420.93428 426.1538 431.61384 435.15443 439.23368 441.63816 446.67817 452.19804 457.7179 460.12239 465.64225 469.30674 474.8266 478.006 483.22663 487.30693 491.38618 493.79069 499.31056 504.8304 509.87043 512.2749 516.3225 518.9622 521.3667 525.8082 529.4727 534.6933 539.7333 543.2728 545.6773 551.19717 556.11746">Designed and delivered 10+ lectures on technical and industry topics to 400+ students and professionals, creating </tspan><tspan y="-515.5185" x="72.02551 77.24506 82.76596 88.285808 92.7273 97.7673 101.30791 103.70716 109.22806 114.7479 119.7879 122.18716 124.59166 132.93181 137.9718 141.51136 146.73195 150.39646 152.7957 157.8357 160.24019 164.32048 166.71973 171.75972 177.28063 182.80048 185.19972 189.28002 192.75972 196.42423 201.64379 207.16469 212.08394 215.62454 221.1444 226.36396 231.8838 234.2883 239.80815 244.72844 247.13294 252.65279 258.17265 263.6925 266.09703 268.50154 272.94303 275.3475 279.42677 284.94767 290.1672 295.2072 300.00679 302.4113 307.93116 312.85145 315.25593 319.33518 324.13578 326.54029 328.93955 331.34407 335.42436 338.06404">educational materials and strengthening public speaking skills. </tspan></text>
<text xml:space="preserve" transform="matrix(1 0 -0 1 0 792)" font-size="10.5" font-family="Calibri"><tspan y="-502.677" x="54.028535">&#x25cf;</tspan></text>
<text xml:space="preserve" transform="matrix(1 0 -0 1 0 792)" font-size="10.5" font-family="ArialMT"><tspan y="-502.677" x="60.391534"> </tspan></text>
<text xml:space="preserve" transform="matrix(1 0 -0 1 0 792)" font-size="10.5" font-family="Calibri"><tspan y="-502.677" x="72.03603 76.83559 82.35648 86.01573 94.41573 99.93663 102.335887 107.375888 110.91649 116.13604">Formulated</tspan></text>
<text xml:space="preserve" transform="matrix(1 0 -0 1 0 792)" font-size="12" font-family="TimesNewRomanPSMT"><tspan y="-502.68" x="121.62"> </tspan></text>
<text xml:space="preserve" transform="matrix(1 0 -0 1 0 792)" font-size="10.5" font-family="Calibri"><tspan y="-502.68" x="124.62 129.06151 134.58135 140.1012 143.7657 147.84496 153.06555 155.4648 159.9063 165.42613 170.94599 174.48659 179.70615 185.226 188.7645 191.16899 194.70854 200.22945 205.26944 208.74915 211.14839 213.55289 221.95288 227.47274 231.13724 236.65708 241.39783 246.55753 252.07738 254.48188 259.52189 263.06144 266.60099 271.8216 277.34147 282.86134 288.08195 293.24165 295.64088 300.86149 306.3215 311.2418 316.2818 321.20106 326.42167 334.82167 340.0412 345.56108 349.10166 351.50614 356.54615 362.066 367.52604 369.92527 375.44514 380.96604 386.4859 391.70545 395.36994 399.45024 402.98979 408.0298 413.54966 419.06953 421.47404 426.93406 431.85435 434.25358 439.77345 442.9539 445.35838 449.79988 455.32078 463.71974 469.24064 471.6399 476.8605 481.42066 483.8199 487.29957 492.82048 498.34034 500.7396 505.1811 509.26139 511.6606 517.1815 521.9212 524.3257 529.6649 535.0052 542.5054 545.11349">course content that improved attendee engagement and understanding of complex topics by 20%. </tspan></text>
</svg>
