<svg width="40" height="45" viewBox="0 0 40 45" fill="none" xmlns="http://www.w3.org/2000/svg">
    <path d="M20.8799 22.2848C26.0083 24.556 29.8546 25.948 32.4188 26.4608C34.983 26.9004 36.7779 27.4499 37.8036 28.1092C38.9026 28.7686 39.452 29.721 39.452 30.9665C39.452 32.1387 39.0491 33.1643 38.2432 34.0435C37.4373 34.9227 36.6314 35.3623 35.8255 35.3623C35.0929 35.3623 34.3237 35.1425 33.5177 34.7029C32.7851 34.2633 31.5397 33.0545 29.7813 31.0764C28.023 29.0983 24.8728 26.4608 20.3304 23.164C20.9166 28.7319 21.6126 32.7981 22.4184 35.3623C23.2976 37.8532 23.7372 39.6481 23.7372 40.747C23.7372 41.7728 23.3342 42.6519 22.5283 43.3846C21.7957 44.0439 20.8432 44.3736 19.671 44.3736C18.4988 44.3736 17.5464 44.0439 16.8138 43.3846C16.0812 42.6519 15.7149 41.7728 15.7149 40.747C15.7149 39.6481 16.1545 37.8532 17.0336 35.3623C17.9128 32.7981 18.6454 28.7319 19.2315 23.164C13.7368 27.1202 10.4399 29.8675 9.34103 31.4061C7.3629 34.0435 5.53134 35.3623 3.8463 35.3623C2.89388 35.3623 2.01472 34.9593 1.20883 34.1534C0.402945 33.2743 0 32.2486 0 31.0764C0 29.8309 0.51284 28.8785 1.53852 28.2191C2.63746 27.4865 4.46903 26.8638 7.03324 26.3509C9.67069 25.8381 13.5536 24.4827 18.682 22.2848C13.5536 20.0137 9.67069 18.6217 7.03324 18.1088C4.46903 17.5228 2.63746 16.9 1.53852 16.2407C0.51284 15.5813 0 14.6655 0 13.4933C0 12.2479 0.402945 11.2221 1.20883 10.4163C2.01472 9.53711 2.82062 9.09752 3.62651 9.09752C4.50566 9.09752 5.27492 9.28069 5.93429 9.64704C6.59366 10.0133 7.21641 10.4895 7.80248 11.0757C8.38862 11.6617 8.90145 12.2845 9.34103 12.9438C10.5132 14.5556 13.8101 17.3396 19.2315 21.2958C18.6454 15.6546 17.9128 11.5885 17.0336 9.09752C16.1545 6.6066 15.7149 4.84829 15.7149 3.82261C15.7149 2.79694 16.0812 1.91778 16.8138 1.18515C17.5464 0.452526 18.4988 0.0862122 19.671 0.0862122C20.8432 0.0862122 21.7957 0.452526 22.5283 1.18515C23.3342 1.91778 23.7372 2.79694 23.7372 3.82261C23.7372 4.84829 23.2976 6.6066 22.4184 9.09752C21.6126 11.5885 20.9166 15.6546 20.3304 21.2958C24.8728 17.999 28.023 15.3615 29.7813 13.3834C31.5397 11.3321 32.7851 10.1232 33.5177 9.7569C34.2503 9.31732 35.0197 9.09752 35.8255 9.09752C36.6314 9.09752 37.4373 9.53711 38.2432 10.4163C39.0491 11.2221 39.452 12.2479 39.452 13.4933C39.452 14.6655 38.9026 15.5813 37.8036 16.2407C36.7779 16.9 34.983 17.5228 32.4188 18.1088C29.8546 18.6217 26.0083 20.0137 20.8799 22.2848Z" fill="#C6C6C6"/>
</svg>
